<svg width="148" height="19" viewBox="0 0 148 19" fill="none" xmlns="http://www.w3.org/2000/svg">
<path d="M13.7582 6.37983C13.7582 3.21578 11.4951 0.986572 8.26207 0.986572H0.0717773V18.6405H2.8378V11.809H7.61547L11.8543 18.6405H15.0155L10.4893 11.4135C12.5009 10.6225 13.7582 8.75286 13.7582 6.37983ZM8.1543 9.25624H2.80187V3.53938H8.1543C9.9145 3.53938 11.0281 4.65399 11.0281 6.37983C11.0281 8.14163 9.9145 9.25624 8.1543 9.25624Z" fill="#303030"/>
<path d="M46.4834 5.51685C42.5678 5.51685 39.8737 8.24943 39.8737 12.1685C39.8737 16.0876 42.6038 18.8202 46.4834 18.8202C50.363 18.8202 53.0931 16.0876 53.0931 12.1685C53.0931 8.24943 50.3989 5.51685 46.4834 5.51685ZM46.4834 16.3034C44.1484 16.3034 42.6038 14.6494 42.6038 12.1685C42.6038 9.68763 44.1484 8.0337 46.4834 8.0337C48.8183 8.0337 50.363 9.68763 50.363 12.1685C50.363 14.6494 48.7824 16.3034 46.4834 16.3034Z" fill="#303030"/>
<path d="M61.7864 5.66064C60.1699 5.66064 58.733 6.16402 57.6912 7.35054V5.66064H54.9971V18.6404H57.6912V12.7797C57.6912 10.0831 59.4155 8.10559 61.7864 8.10559H62.433V5.66064H61.7864Z" fill="#303030"/>
<path d="M84.3815 10.5505H77.4485V12.8157H84.3815V10.5505Z" fill="#303030"/>
<path d="M34.198 10.8382C32.6892 10.3348 31.7552 10.2989 31.6834 9.22022C31.6475 8.50112 32.5455 7.99774 33.7669 7.99774C34.8446 7.99774 35.7786 8.32134 36.3892 8.96853L36.6407 9.22022L38.329 7.53033L38.0776 7.24269C36.9999 6.12808 35.4912 5.51685 33.731 5.51685C30.929 5.51685 29.0252 7.02696 29.0252 9.29213C29.0252 11.8449 31.5756 12.4921 33.4077 12.9955C34.162 13.2112 35.9582 13.8225 35.9582 14.973C35.9582 15.764 34.9523 16.3393 33.5514 16.3393C32.4019 16.3393 31.2883 15.9438 30.5698 15.3326L30.3543 15.1168L28.63 16.8427L28.9533 17.1303C30.1747 18.2449 31.7912 18.8562 33.5514 18.8562C36.5688 18.8562 38.5805 17.2741 38.5805 14.9371C38.6164 11.773 34.198 10.8382 34.198 10.8382Z" fill="#303030"/>
<path d="M71.7368 15.836C71.4135 16.1237 71.0184 16.2675 70.5155 16.2675C69.5096 16.2675 68.899 15.5843 68.899 14.5776V8.10567H73.2456V5.69669H68.899V3.53938V2.20905V1.38208C68.899 1.38208 68.3601 2.28096 66.2048 3.2877V5.66073H63.9058V8.06972H66.2048V14.6855C66.2048 17.0585 67.9291 18.7843 70.3359 18.7843C71.5572 18.7843 72.599 18.3169 73.3893 17.454L71.7368 15.836Z" fill="#303030"/>
<path d="M95.9844 5.66069C94.5835 5.66069 93.3262 6.02024 92.3563 6.91912V0.411255H89.6621V17.7416L90.0213 17.9214C91.2068 18.4607 92.7874 18.7843 94.2961 18.7843C98.6786 18.7843 101.732 15.9079 101.732 11.7731C101.768 8.10563 99.3971 5.66069 95.9844 5.66069ZM95.733 8.14159C98.1398 8.14159 99.0019 9.57979 99.0019 11.8809C99.0019 14.5056 97.2058 16.3034 94.5476 16.3034C93.865 16.3034 93.0388 16.1955 92.3563 15.9798V13.5708C92.3563 10.1191 93.5058 8.14159 95.733 8.14159Z" fill="#303030"/>
<path d="M124.399 15.836C124.076 16.1237 123.681 16.2675 123.178 16.2675C122.172 16.2675 121.561 15.5843 121.561 14.5776V8.10567H125.908V5.69669H121.561V3.53938V2.20905V1.38208C121.561 1.38208 121.022 2.28096 118.867 3.2877V5.66073H116.568V8.06972H118.867V14.6855C118.867 17.0585 120.591 18.7843 122.998 18.7843C124.219 18.7843 125.261 18.3169 126.051 17.454L124.399 15.836Z" fill="#303030"/>
<path d="M133.631 15.836C133.308 16.1237 132.913 16.2675 132.41 16.2675C131.404 16.2675 130.793 15.5843 130.793 14.5776V8.10567H135.14V5.69669H130.793V3.53938V2.20905V1.38208C130.793 1.38208 130.254 2.28096 128.099 3.2877V5.66073H125.8V8.06972H128.099V14.6855C128.099 17.0585 129.823 18.7843 132.23 18.7843C133.451 18.7843 134.493 18.3169 135.283 17.454L133.631 15.836Z" fill="#303030"/>
<path d="M142.432 5.51685C140.492 5.51685 138.373 6.2719 137.223 7.42246L137.116 7.53033L138.804 9.22022L138.84 9.18426C139.63 8.50111 141.067 7.99774 142.324 7.99774C144.013 7.99774 145.162 8.86067 145.162 10.1191V10.5146V10.5506C145.09 10.5506 145.054 10.5506 144.983 10.5146C144.372 10.4067 143.725 10.3348 143.15 10.3348C142.504 10.3348 141.857 10.4067 141.283 10.5146C140.025 10.7303 138.983 11.1977 138.193 11.8449C137.223 12.6359 136.684 13.6427 136.684 14.8652C136.684 16.0876 137.259 17.1303 138.193 17.8494C138.983 18.4607 140.061 18.7843 141.283 18.7843C142.791 18.7843 144.156 18.2449 145.198 17.2741V18.6045H147.856V10.5146V10.0831C147.82 7.45842 145.521 5.51685 142.432 5.51685ZM141.606 16.3393C140.277 16.3393 139.379 15.6921 139.379 14.7933C139.379 13.391 140.995 12.7079 143.222 12.7079C143.869 12.7079 144.551 12.7798 145.126 12.9236C144.911 14.9011 143.474 16.3393 141.606 16.3393Z" fill="#303030"/>
<path d="M113.515 14.973L113.263 15.2247C112.545 15.9438 111.467 16.3034 110.174 16.3034C107.947 16.3034 106.33 15.0809 106.007 13.2112C106.007 13.2112 112.688 14.0382 114.628 11.2337C116.748 8.14157 113.91 5.04944 109.491 5.55281C105.863 5.94832 103.205 8.2854 103.205 12.0607C103.205 16.0517 106.007 18.8562 110.03 18.8562C112.006 18.8562 113.802 18.173 114.987 16.9146L115.203 16.6989L113.515 14.973ZM110.282 7.81798C111.862 7.81798 112.976 8.35731 112.976 9.18427C112.976 10.4067 111.036 11.018 108.378 11.018C107.587 11.018 106.761 10.9461 106.079 10.8382C106.33 9.07641 108.054 7.81798 110.282 7.81798Z" fill="#303030"/>
<path d="M25.5407 14.973L25.2892 15.2247C24.5708 15.9438 23.4931 16.3034 22.1999 16.3034C19.9727 16.3034 18.3562 15.0809 18.0329 13.2112C18.0329 13.2112 24.7145 14.0382 26.6543 11.2337C28.7737 8.14157 25.9358 5.04944 21.5174 5.55281C17.8892 5.94832 15.231 8.2854 15.231 12.0607C15.231 16.0517 18.0329 18.8562 22.0562 18.8562C24.0319 18.8562 25.828 18.173 27.0135 16.9146L27.229 16.6989L25.5407 14.973ZM22.3077 7.81798C23.8882 7.81798 25.0018 8.35731 25.0018 9.18427C25.0018 10.4067 23.062 11.018 20.4038 11.018C19.6135 11.018 18.7873 10.9461 18.1047 10.8382C18.3203 9.07641 20.0445 7.81798 22.3077 7.81798Z" fill="#303030"/>
</svg>
