<svg width="54" height="40" viewBox="0 0 54 40" fill="none" xmlns="http://www.w3.org/2000/svg">
<path d="M26.9282 3.37982C36.4117 3.37982 44.0991 11.0742 44.0991 20.5663C44.0991 30.0585 36.4117 37.7529 26.9282 37.7529C17.4448 37.7529 9.75737 30.0585 9.75737 20.5663C9.75737 11.0742 17.4448 3.37982 26.9282 3.37982ZM26.9282 1.76184C16.5826 1.76184 8.14087 10.1753 8.14087 20.5663C8.14087 30.9573 16.5467 39.3708 26.9282 39.3708C37.3098 39.3708 45.7156 30.9573 45.7156 20.5663C45.7156 10.1753 37.2739 1.76184 26.9282 1.76184Z" fill="#C19E00"/>
<path d="M35.9087 4.85392L35.8369 4.17078L30.2689 11.5056C30.3048 11.6854 30.3408 11.8652 30.3767 12.0449C30.5204 12.0449 30.6641 12.0449 30.7718 12.0449C32.2447 12.0449 33.466 11.5775 34.3281 10.6427C36.3039 8.6292 35.9087 5.0337 35.9087 4.85392Z" fill="#14AD00"/>
<path d="M30.5923 13.3033C30.6282 13.555 30.6641 13.8067 30.7001 14.0584C31.7059 14.3101 32.6758 14.4539 33.5738 14.4539C35.0107 14.4539 36.3039 14.1303 37.4175 13.4831C40.0399 11.937 40.7583 9.13254 40.7583 9.02468L40.902 8.48535L30.5923 13.3033Z" fill="#14AD00"/>
<path d="M42.4107 13.9146C37.0942 15.6764 30.9514 16.0719 30.9155 16.0719C30.9155 16.2517 30.9515 16.4674 30.9515 16.6472L31.0951 16.7191C32.9272 17.6539 34.6155 18.1213 36.232 18.1213C37.0223 18.1213 37.7767 18.0135 38.4951 17.7618C41.4049 16.8269 42.734 14.382 42.7699 14.2741L43.0573 13.6989L42.4107 13.9146Z" fill="#007A18"/>
<path d="M43.3806 17.618C37.5612 19.9191 31.0234 18.7326 30.9515 18.6966H30.8797C30.8797 18.8764 30.8438 19.0921 30.8438 19.2719C32.7836 20.9977 34.7952 21.8966 36.7709 21.8966C37.0224 21.8966 37.2738 21.8966 37.5253 21.8607C41.2612 21.4652 43.5962 18.1933 43.7039 18.0494L44.2428 17.2584L43.3806 17.618Z" fill="#14AD00"/>
<path d="M43.4524 23.4067C35.4058 24.3415 30.8437 21.7887 30.8077 21.7887L30.5204 21.6449C30.4844 21.8247 30.4485 21.9685 30.4126 22.1483L30.4485 22.1842C32.065 24.5573 34.0407 25.9236 36.3039 26.2471C36.6631 26.2831 36.9864 26.3191 37.3097 26.3191C40.7582 26.3191 43.5242 24.0179 43.6679 23.9101L44.3504 23.3348L43.4524 23.4067Z" fill="#14AD00"/>
<path d="M41.0457 29.3753C34.1486 29.5191 29.7301 24.9887 29.6942 24.9528L29.5505 24.809C29.4787 25.0247 29.3709 25.2045 29.2991 25.4202C30.1253 28.1887 31.5263 29.9865 33.502 30.8135C34.3282 31.173 35.2263 31.2809 36.0525 31.2809C38.7107 31.2809 41.0457 29.9505 41.1894 29.8786L42.0874 29.3393L41.0457 29.3753Z" fill="#007A18"/>
<path d="M37.0942 33.654C33.2864 33.1865 28.7962 28.5843 28.0418 27.7573C27.8981 27.9731 27.7544 28.1888 27.6107 28.4045C28.3651 31.245 29.6583 33.1506 31.5263 34.0854C32.4962 34.5528 33.4661 34.7326 34.3282 34.7326C35.9088 34.7326 37.0942 34.1933 37.202 34.1573L38.1 33.7618L37.0942 33.654Z" fill="#14AD00"/>
<path d="M30.8078 36.9618C28.1855 35.5595 26.0301 30.9213 25.9942 30.8494L25.8505 30.5618C25.7068 30.7056 25.5991 30.8494 25.4554 30.9573C25.2758 33.3663 25.7787 35.164 26.9641 36.2786C28.0418 37.2854 29.4068 37.4651 30.1612 37.4651C30.4845 37.4651 30.6641 37.4292 30.7 37.4292L31.4903 37.3213L30.8078 36.9618Z" fill="#14AD00"/>
<path d="M29.6223 11.1101C29.4786 10.8943 29.1194 10.355 28.7961 9.42017C27.2155 7.83815 24.3418 5.46512 20.8932 4.63815L20.2107 4.45837L20.6058 5.03366C20.7854 5.3213 25.0602 11.3617 29.299 11.3617C29.4068 11.3617 29.5505 11.3617 29.6583 11.3258C29.6583 11.2539 29.6223 11.182 29.6223 11.1101Z" fill="#007A18"/>
<path d="M28.9758 0.611236L28.6166 0L28.4729 0.719101C27.6826 4.99775 28.2214 7.80225 28.7962 9.42023C29.1195 10.3551 29.4787 10.8944 29.6224 11.1101L29.7661 11.0742L30.1253 11.0022C30.1253 11.0382 30.1612 11.1101 30.1612 11.1461C32.3884 6.61573 29.0836 0.862921 28.9758 0.611236Z" fill="#14AD00"/>
<path d="M30.1612 14.0584C28.5806 12.6921 23.4437 8.55729 18.8456 8.66516H18.2709L18.666 9.09662C18.8816 9.3483 23.9466 14.9932 29.5505 14.9932C29.8019 14.9932 30.0175 14.9573 30.2689 14.9573C30.233 14.6337 30.1971 14.3461 30.1612 14.0584Z" fill="#14AD00"/>
<path d="M15.2535 9.81567L14.4272 9.02466L14.8224 10.1033C14.8583 10.2112 18.235 19.2718 27.8622 19.2718C28.6525 19.2718 29.4787 19.1999 30.3408 19.0921C30.3408 18.8763 30.3768 18.6966 30.3768 18.4808C28.9399 17.9056 19.8874 14.2381 15.2535 9.81567Z" fill="#14AD00"/>
<path d="M11.0147 13.9505L10.2244 13.3033L10.5836 14.2382C10.6195 14.346 14.1758 23.155 24.1622 23.155C25.8506 23.155 27.6826 22.9033 29.7661 22.3281C29.802 22.1123 29.8739 21.9326 29.9098 21.7168C29.0477 21.8247 21.0729 22.1483 11.0147 13.9505Z" fill="#007A18"/>
<path d="M10.9068 23.4067L10.0088 23.2269L10.6554 23.8741C10.7272 23.946 14.6428 27.8292 20.8214 27.8292C23.1204 27.8292 25.7068 27.2899 28.5088 25.8516C28.6525 25.564 28.7962 25.2404 28.9399 24.9168C27.3952 24.9887 19.636 25.3483 10.9068 23.4067Z" fill="#14AD00"/>
<path d="M30.9156 16.6113C30.9156 16.4315 30.9156 16.2517 30.8797 16.036C30.8438 15.3888 30.7719 14.7056 30.7001 14.0225C30.6642 13.7708 30.6282 13.5191 30.5923 13.2674C30.5205 12.8719 30.4486 12.4764 30.3768 12.045C30.3409 11.8652 30.3049 11.6854 30.269 11.5056C30.2331 11.3618 30.1972 11.2539 30.1972 11.1101C30.1972 11.0742 30.1612 11.0023 30.1612 10.9663L29.802 11.0382L29.6583 11.0742C29.6583 11.1461 29.6943 11.218 29.6943 11.2899C29.9098 12.2247 30.0535 13.1236 30.1972 13.9865C30.2331 14.3101 30.269 14.5978 30.3049 14.8854C30.4127 16.1079 30.4486 17.2944 30.4127 18.409C30.4127 18.6247 30.3768 18.8045 30.3768 19.0202C30.3049 19.9551 30.1612 20.8539 29.9816 21.6809C29.9457 21.8966 29.8739 22.0764 29.8379 22.2922C29.6224 23.191 29.335 24.018 29.0117 24.809C28.868 25.1326 28.7243 25.4202 28.5807 25.7438C24.7729 33.5101 16.4748 35.9191 16.3671 35.9551L16.5108 36.4584C16.6185 36.4225 21.468 35.0202 25.5273 30.9214C25.6709 30.7775 25.7787 30.6697 25.9224 30.5259C26.5331 29.8787 27.1438 29.1236 27.6826 28.3326C27.8263 28.1169 27.97 27.9011 28.1137 27.6854C28.5807 26.9663 29.0117 26.1753 29.371 25.3483C29.4428 25.1326 29.5506 24.9528 29.6224 24.7371C29.9457 23.9101 30.2331 23.0113 30.4486 22.0405C30.4845 21.8607 30.5205 21.7169 30.5564 21.5371C30.7001 20.782 30.8078 19.991 30.8797 19.1641C30.8797 18.9843 30.9156 18.7686 30.9156 18.5888C30.9515 18.0135 30.9515 17.3304 30.9156 16.6113Z" fill="#007A18"/>
<path d="M26.0661 27.7933C25.9583 27.8293 16.9778 30.8855 13.2778 30.7057L12.0564 30.6338L13.1341 31.2091C13.17 31.245 15.3972 32.3596 18.235 32.3596C20.7496 32.3596 23.803 31.4967 26.3176 28.1888L26.8564 27.4697L26.0661 27.7933Z" fill="#007A18"/>
<path d="M1.74663 18.1213H0.130127V24.5213H1.74663V18.1213Z" fill="#C19E00"/>
<path d="M53.7262 18.1213H52.1097V24.5213H53.7262V18.1213Z" fill="#C19E00"/>
</svg>
