<svg width="33" height="35" viewBox="0 0 33 35" fill="none" xmlns="http://www.w3.org/2000/svg">
<path d="M29.1567 24.3602C27.0424 22.5518 24.8966 21.4564 22.8082 23.2621L21.5612 24.3534C20.6488 25.1456 18.9524 28.847 12.3936 21.3021C5.83613 13.7666 9.73837 12.5934 10.6521 11.808L11.906 10.7153C13.9834 8.90557 13.1994 6.62732 11.7011 4.28215L10.7969 2.86166C9.29174 0.521955 7.65271 -1.01463 5.56978 0.792394L4.44432 1.77581C3.52374 2.44644 0.950468 4.62635 0.326273 8.76761C-0.424946 13.7366 1.94481 19.4267 7.37408 25.6701C12.7965 31.9161 18.1056 35.0535 23.1347 34.9988C27.3142 34.9538 29.8383 32.711 30.6277 31.8956L31.7573 30.9108C33.8348 29.1052 32.544 27.2667 30.4283 25.4542L29.1567 24.3602Z" fill="#312C3A"/>
</svg>
