<svg width="110" height="81" viewBox="0 0 110 81" fill="none" xmlns="http://www.w3.org/2000/svg">
<path d="M55 6.9851C74.4039 6.9851 90.1947 22.8358 90.1947 42.3135C90.1947 61.7911 74.4039 77.6418 55 77.6418C35.5961 77.6418 19.8053 61.7911 19.8053 42.3135C19.8053 22.8358 35.5961 6.9851 55 6.9851ZM55 3.62689C33.7226 3.62689 16.4598 20.9552 16.4598 42.3135C16.4598 63.6717 33.7226 81 55 81C76.2774 81 93.5402 63.6717 93.5402 42.3135C93.5402 20.9552 76.2774 3.62689 55 3.62689Z" fill="#C19E00"/>
<path d="M73.4671 10.0746L73.3333 8.73135L61.9586 23.7761C62.0924 24.1791 62.0924 24.5821 62.2263 24.8508C62.4939 24.8508 62.7615 24.8508 63.0292 24.8508C66.107 24.8508 68.5158 23.9105 70.3893 22.0299C74.2701 17.7314 73.4671 10.3433 73.4671 10.0746Z" fill="#C19E00"/>
<path d="M62.4939 27.403C62.6277 27.9403 62.6277 28.4776 62.7615 29.015C64.9027 29.5523 66.7761 29.8209 68.6496 29.8209C71.5936 29.8209 74.27 29.1493 76.545 27.806C81.8978 24.5821 83.3698 18.806 83.3698 18.5373L83.6374 17.4627L62.4939 27.403Z" fill="#C19E00"/>
<path d="M86.7153 28.612C75.8759 32.2388 63.2968 33.0448 63.163 33.0448C63.163 33.4478 63.163 33.8508 63.163 34.2537L63.4306 34.3881C67.1776 36.2687 70.6569 37.3433 74.0024 37.3433C75.6082 37.3433 77.0802 37.0746 78.6861 36.6717C84.708 34.7911 87.3844 29.6866 87.5182 29.4179L88.1873 28.209L86.7153 28.612Z" fill="#C19E00"/>
<path d="M88.7226 36.2687C76.8126 40.9702 63.4306 38.5522 63.2968 38.5522H63.163C63.163 38.9552 63.163 39.3582 63.0292 39.7612C67.0438 43.3881 71.0584 45.1343 75.2068 45.1343C75.7421 45.1343 76.2774 45.1343 76.6788 45C84.3066 44.194 89.1241 37.4776 89.3917 37.209L90.4623 35.7314L88.7226 36.2687Z" fill="#C19E00"/>
<path d="M88.8564 48.2239C72.3965 50.1045 63.0291 44.8657 62.8953 44.8657L62.36 44.597C62.2262 45 62.2262 45.2687 62.0924 45.6717L62.2262 45.806C65.5717 50.6418 69.5863 53.4627 74.27 54.1344C74.9391 54.2687 75.742 54.2687 76.4111 54.2687C83.5036 54.2687 89.1241 49.5672 89.3917 49.2985L90.8637 48.0896L88.8564 48.2239Z" fill="#C19E00"/>
<path d="M83.9051 60.4478C69.7202 60.7164 60.7542 51.4478 60.6204 51.3134L60.3528 51.0448C60.219 51.4478 59.9513 51.8507 59.8175 52.2537C61.5572 57.8955 64.3674 61.6567 68.382 63.2686C70.1216 63.9403 71.8613 64.2089 73.601 64.2089C79.0876 64.2089 83.9051 61.5224 84.1727 61.2537L86.0462 60.1791L83.9051 60.4478Z" fill="#C19E00"/>
<path d="M75.8759 69.3134C68.1143 68.3731 58.8807 58.8358 57.2749 57.2239C57.0072 57.6268 56.7396 58.1642 56.3381 58.5671C57.944 64.3433 60.6204 68.3731 64.3673 70.2537C66.3746 71.194 68.3819 71.597 70.1216 71.597C73.3333 71.597 75.8759 70.5224 76.0097 70.3881L77.8832 69.5821L75.8759 69.3134Z" fill="#C19E00"/>
<path d="M62.8954 76.1642C57.5426 73.209 52.9927 63.6717 52.9927 63.6717L52.7251 63.1343C52.4575 63.403 52.1898 63.6716 51.9222 63.9403C51.5207 68.9105 52.5913 72.6717 55 74.9552C57.275 77.1045 60.0852 77.3731 61.5572 77.3731C62.2263 77.3731 62.6278 77.3731 62.6278 77.3731L64.2336 77.1045L62.8954 76.1642Z" fill="#C19E00"/>
<path d="M60.4867 22.8358C60.219 22.4328 59.4161 21.2239 58.747 19.3433C55.5353 16.1194 49.6472 11.2836 42.5548 9.53732L41.0828 9.13434L41.8857 10.3433C42.2871 10.8806 50.9854 23.3731 59.8176 23.3731C60.0852 23.3731 60.3528 23.3731 60.6205 23.3731C60.6205 23.2388 60.6205 23.1045 60.4867 22.8358Z" fill="#C19E00"/>
<path d="M59.1484 1.34328L58.3455 0L58.0779 1.47761C56.472 10.209 57.5426 15.9851 58.747 19.4776C59.4161 21.3582 60.0852 22.5672 60.4866 22.9702L60.7543 22.8358L61.5572 22.7015C61.5572 22.8358 61.5572 22.8358 61.5572 22.9702C66.2409 13.7015 59.4161 1.74627 59.1484 1.34328Z" fill="#C19E00"/>
<path d="M61.5571 28.8806C58.3455 26.0597 47.7737 17.597 38.4063 17.7314H37.2019L38.0048 18.6717C38.4063 19.209 48.8442 30.7612 60.3528 30.7612C60.888 30.7612 61.2895 30.7612 61.8248 30.6269C61.8248 30.0896 61.691 29.5522 61.5571 28.8806Z" fill="#C19E00"/>
<path d="M31.0462 20.1492L29.3065 18.5373L30.1094 20.8209C30.2433 21.0895 37.0681 39.6268 56.8734 39.6268C58.4793 39.6268 60.2189 39.4925 61.9586 39.2239C61.9586 38.8209 61.9586 38.4179 62.0924 38.0149C59.1484 36.8059 40.5474 29.2836 31.0462 20.1492Z" fill="#C19E00"/>
<path d="M22.3479 28.7463L20.7421 27.403L21.545 29.4179C21.6788 29.6866 28.9051 47.8209 49.3795 47.8209C52.8589 47.8209 56.6058 47.2836 60.8881 46.0747C61.0219 45.6717 61.1557 45.2687 61.1557 44.8657C59.416 44.8657 42.9562 45.5374 22.3479 28.7463Z" fill="#C19E00"/>
<path d="M22.0803 48.2239L20.2068 47.8209L21.545 49.1642C21.6788 49.2985 29.708 57.2239 42.4209 57.2239C47.1046 57.2239 52.4574 56.1492 58.2117 53.0597C58.4793 52.388 58.7469 51.8507 59.0146 51.1791C55.9367 51.4477 40.0121 52.1194 22.0803 48.2239Z" fill="#C19E00"/>
<path d="M63.1631 34.2538C63.1631 33.8508 63.1631 33.4478 63.1631 33.0448C63.0292 31.7015 62.8954 30.3582 62.7616 28.8806C62.7616 28.3433 62.6278 27.806 62.494 27.2687C62.3601 26.4627 62.2263 25.6567 62.0925 24.8508C61.9587 24.4478 61.9587 24.0448 61.8249 23.7762C61.8249 23.5075 61.691 23.2388 61.691 22.9702C61.691 22.8359 61.691 22.8359 61.691 22.7015L60.8881 22.8359H60.4867C60.4867 22.9702 60.4867 23.1045 60.6205 23.2388C61.0219 25.1194 61.4234 27 61.5572 28.7463C61.691 29.4179 61.691 29.9553 61.8249 30.6269C62.0925 33.1791 62.0925 35.597 61.9587 37.8806C61.9587 38.2836 61.9587 38.6866 61.8249 39.0896C61.691 40.9702 61.4234 42.8508 61.0219 44.597C60.8881 45 60.8881 45.403 60.7543 45.806C60.3528 47.6866 59.6837 49.2985 59.0146 51.0448C58.747 51.7164 58.4794 52.3881 58.2117 52.9254C50.4502 69.1791 33.455 74.015 33.1874 74.1493L33.455 75.2239C33.5888 75.2239 43.6253 72.2687 52.056 63.806C52.3236 63.5373 52.5913 63.2687 52.8589 63C54.1971 61.6567 55.4015 60.1791 56.4721 58.5672C56.7397 58.1642 57.0073 57.6269 57.4088 57.2239C58.3455 55.7463 59.2823 54.1344 59.9514 52.3881C60.0852 51.9851 60.3528 51.5821 60.4867 51.1791C61.1558 49.4329 61.8249 47.5523 62.2263 45.6717C62.3601 45.2687 62.3601 45 62.494 44.597C62.7616 42.9851 63.0292 41.3732 63.1631 39.7612C63.1631 39.3582 63.1631 38.9553 63.2969 38.5523C63.1631 37.0747 63.1631 35.7314 63.1631 34.2538Z" fill="#C19E00"/>
<path d="M53.2603 57.2239C53.1265 57.2239 34.6593 63.6717 27.0316 63.2687L24.489 63.1344L26.764 64.3433C26.8978 64.3433 31.3138 66.7612 37.2019 66.7612C42.4209 66.7612 48.5766 65.015 53.7956 58.1642L54.8661 56.6866L53.2603 57.2239Z" fill="#C19E00"/>
<path d="M3.3455 37.3433H0V50.5075H3.3455V37.3433Z" fill="#C19E00"/>
<path d="M110 37.3433H106.655V50.5075H110V37.3433Z" fill="#C19E00"/>
</svg>
